<svg xmlns="http://www.w3.org/2000/svg" viewBox="0 0 82.020831 82.020836"><defs/><g fill="#6c5bb9"><path d="M40.30415962 1.15912667a38.981486 38.981486 0 00-38.9812459 38.98124 38.981486 38.981486 0 0038.9812459 38.98125 38.981486 38.981486 0 0026.33716-10.30699l-9.99516-2.67732a30.899807 30.899807 0 01-16.33402 4.69105 30.899807 30.899807 0 01-30.8997387-30.89973 30.899807 30.899807 0 0130.8997387-30.89972 30.899807 30.899807 0 0130.89972 30.89972 30.899807 30.899807 0 01-5.23412 17.18098l2.62768 9.80556a38.981486 38.981486 0 0010.68087-26.7748 38.981486 38.981486 0 00-38.98213-38.98124z"/><path d="M57.79338962 74.75254667l22.90453 6.10916-6.13108-23.17942-6.34928 7.70858 1.0298 3.98506-4.13909-.9639z"/><g transform="translate(-81.90113938 -126.98494633) scale(1.15535)"><circle cx="97.234375" cy="143.80626" r="3.0427084"/><circle cx="106.62708" cy="143.80626" r="3.0427084"/></g><path d="M19.38532587 39.30030171a20.06302958 20.06302958 0 0019.20499527 20.88561534 20.06302958 20.06302958 0 0020.88560734-19.20500128 20.06302958 20.06302958 0 00-4.73242733-13.76550537l-1.59220095 5.08207674a15.90354328 15.90354328 0 012.06014903 8.5005508 15.90354328 15.90354328 0 01-16.5556458 15.2234556 15.90354328 15.90354328 0 01-15.22343156-16.55564779 15.90354328 15.90354328 0 0116.55562576-15.22343357 15.90354328 15.90354328 0 018.72214128 3.06190596l5.09894794-1.13985648a20.06302958 20.06302958 0 00-13.53813362-6.06960179 20.06302958 20.06302958 0 00-20.88562736 19.20544184z"/><path d="M57.6062388 31.89325914L61.2414873 20.2467828 49.18976166 22.899887l3.8271096 3.43115 2.07144322-.44363553-.58487502 2.10766875z"/></g></svg>